<?xml version="1.0" encoding="utf-8"?>
<!-- Generator: Adobe Illustrator 24.0.2, SVG Export Plug-In . SVG Version: 6.00 Build 0)  -->
<svg version="1.1" id="Layer_1" xmlns="http://www.w3.org/2000/svg" xmlns:xlink="http://www.w3.org/1999/xlink" x="0px" y="0px"
	 viewBox="0 0 595.28 595.28" style="enable-background:new 0 0 595.28 595.28;" xml:space="preserve">
<style type="text/css">
	.st0{fill:#F39234;}
</style>
<g>
	<g>
		<path d="M207.84,137.9c-2.75-4.25-6.68-7.5-11.76-9.76c-5.1-2.26-11.07-3.4-17.93-3.4h-35.76v74.26h25.03v-18.24h10.73
			c6.86,0,12.83-1.14,17.93-3.4c5.08-2.26,9.02-5.51,11.76-9.76c2.76-4.23,4.15-9.19,4.15-14.86
			C211.98,147.09,210.6,142.13,207.84,137.9z M184.19,159.16c-1.69,1.52-4.25,2.28-7.63,2.28h-9.14v-17.39h9.14
			c3.39,0,5.94,0.76,7.63,2.28c1.69,1.52,2.54,3.66,2.54,6.41C186.73,155.5,185.88,157.64,184.19,159.16z"/>
		<path d="M278.12,153.72l-12.68-28.98h-24.61l-32.46,74.26h25.46l4.99-12.94h28.21l4.99,12.94h25.88L278.12,153.72z M245.72,168.02
			l7.2-18.67l7.22,18.67H245.72z"/>
		<path d="M357.53,176.07c4.53-2.33,7.98-5.48,10.4-9.43c2.4-3.96,3.61-8.6,3.61-13.91c0-5.65-1.38-10.61-4.15-14.84
			c-2.76-4.25-6.68-7.5-11.78-9.76c-5.08-2.26-11.07-3.4-17.93-3.4h-35.74v74.26h25.03v-18.67h6.79l12.63,18.67h26.74L357.53,176.07
			z M343.75,159.16c-1.71,1.52-4.25,2.28-7.65,2.28h-9.12v-17.39h9.12c3.4,0,5.94,0.76,7.65,2.28c1.69,1.52,2.54,3.66,2.54,6.41
			C346.28,155.5,345.44,157.64,343.75,159.16z"/>
		<polygon points="396.04,198.99 421.07,198.99 421.07,144.15 442.82,144.15 442.82,124.73 374.29,124.73 374.29,144.15 
			396.04,144.15 		"/>
		<path d="M163.19,269.17c-3.61-5.91-8.6-10.52-14.96-13.85c-6.36-3.32-13.54-4.97-21.54-4.97c-7.98,0-15.17,1.66-21.52,4.97
			c-6.37,3.33-11.37,7.95-14.96,13.85c-3.61,5.89-5.42,12.56-5.42,19.99c0,7.43,1.81,14.1,5.42,20c3.59,5.91,8.58,10.52,14.96,13.84
			c6.36,3.33,13.54,4.99,21.52,4.99c8,0,15.18-1.66,21.54-4.99c6.36-3.32,11.35-7.93,14.96-13.84c3.61-5.91,5.41-12.58,5.41-20
			C168.59,281.73,166.8,275.06,163.19,269.17z M141.11,298.97c-1.47,2.8-3.47,4.96-5.98,6.48c-2.52,1.52-5.34,2.28-8.45,2.28
			c-3.11,0-5.92-0.76-8.43-2.28c-2.5-1.52-4.51-3.68-5.99-6.48c-1.49-2.78-2.23-6.06-2.23-9.81c0-3.75,0.74-7.01,2.23-9.81
			c1.49-2.8,3.49-4.94,5.99-6.46c2.5-1.52,5.32-2.28,8.43-2.28c3.11,0,5.92,0.76,8.45,2.28c2.5,1.52,4.51,3.66,5.98,6.46
			c1.49,2.8,2.23,6.06,2.23,9.81C143.34,292.91,142.6,296.19,141.11,298.97z"/>
		<polygon points="202.76,270.92 202.76,283.65 233.73,283.65 233.73,302.53 202.76,302.53 202.76,326.3 177.71,326.3 
			177.71,252.04 238.08,252.04 238.08,270.92 		"/>
		<polygon points="340.77,252.04 340.77,271.45 319.03,271.45 319.03,326.3 293.98,326.3 293.98,271.45 272.23,271.45 
			272.23,252.04 		"/>
		<polygon points="420.44,326.29 420.44,252.04 395.4,252.04 395.4,278.34 372.27,278.34 372.27,252.04 347.24,252.04 
			347.24,326.29 372.27,326.29 372.27,298.92 395.4,298.92 395.4,326.29 		"/>
		<polygon points="492.89,270.92 492.89,252.04 432.53,252.04 432.53,326.29 494.27,326.29 494.27,307.41 457.14,307.41 
			457.14,297.65 488.54,297.65 488.54,279.62 457.14,279.62 457.14,270.92 		"/>
		<polygon points="141.49,434.71 141.49,453.6 79.76,453.6 79.76,379.34 140.11,379.34 140.11,398.22 104.35,398.22 104.35,406.91 
			135.76,406.91 135.76,424.95 104.35,424.95 104.35,434.71 		"/>
		<polygon points="224.33,379.34 224.33,453.6 203.76,453.6 175.54,419.87 175.54,453.6 151.15,453.6 151.15,379.34 171.72,379.34 
			199.94,413.08 199.94,379.34 		"/>
		<polygon points="298.18,434.71 298.18,453.6 236.43,453.6 236.43,379.34 296.8,379.34 296.8,398.22 261.04,398.22 261.04,406.91 
			292.44,406.91 292.44,424.95 261.04,424.95 261.04,434.71 		"/>
		<path d="M363.42,430.68c4.53-2.33,7.98-5.48,10.4-9.45c1.99-3.26,3.14-6.98,3.47-11.16c0.09-0.88,0.12-1.8,0.12-2.73
			c0-5.67-1.38-10.61-4.13-14.86c-2.76-4.25-6.68-7.5-11.78-9.76s-11.07-3.39-17.93-3.39h-35.74v74.26h25.03v-18.67h6.79
			l12.63,18.67h26.74L363.42,430.68z M349.62,413.75c-1.69,1.54-4.23,2.28-7.63,2.28h-9.12v-17.39h9.12c3.4,0,5.94,0.76,7.63,2.28
			c1.71,1.52,2.56,3.66,2.56,6.43C352.17,410.11,351.33,412.23,349.62,413.75z"/>
		<path d="M435.97,414.44h21.75v31.4c-1.62,1.12-3.33,2.14-5.15,3.07c-3.09,1.59-6.46,2.9-10.12,3.94
			c-5.8,1.62-11.49,2.44-17.08,2.44c-7.91,0-15.03-1.64-21.32-4.94c-6.3-3.28-11.23-7.88-14.8-13.78
			c-3.58-5.91-5.35-12.61-5.35-20.11c0-0.9,0.02-1.78,0.09-2.66c0.36-6.43,2.12-12.25,5.27-17.45c3.58-5.91,8.55-10.5,14.96-13.78
			c6.41-3.3,13.63-4.94,21.7-4.94c7.29,0,13.8,1.23,19.57,3.66c5.77,2.44,10.55,5.99,14.37,10.66l-16.01,14.11
			c-4.66-5.44-10.23-8.17-16.65-8.17c-5.53,0-9.92,1.68-13.16,4.99c-3.25,3.32-4.87,7.84-4.87,13.58c0,4.94,1.26,9.02,3.77,12.23
			c0.33,0.43,0.67,0.85,1.05,1.24c2.99,3.16,6.91,4.85,11.76,5.06c0.36,0.03,0.74,0.03,1.12,0.03c3.18,0,6.22-0.6,9.12-1.81V414.44z
			"/>
		<polygon points="516.39,379.34 501.11,405.01 485.94,379.34 459.52,379.34 487.53,426.33 487.53,453.59 512.57,453.59 
			512.57,426.65 540.57,379.34 		"/>
	</g>
	<polygon class="st0" points="104.35,434.71 141.49,434.71 141.49,453.6 79.76,453.6 79.76,379.34 140.11,379.34 140.11,398.22 
		104.35,398.22 104.35,406.91 135.76,406.91 135.76,424.95 104.35,424.95 	"/>
	<path class="st0" d="M163.19,269.17c-3.61-5.91-8.6-10.52-14.96-13.85c-6.36-3.32-13.54-4.97-21.54-4.97
		c-7.98,0-15.17,1.66-21.52,4.97c-6.37,3.33-11.37,7.95-14.96,13.85c-3.61,5.89-5.42,12.56-5.42,19.99c0,7.43,1.81,14.1,5.42,20
		c3.59,5.91,8.58,10.52,14.96,13.84c6.36,3.33,13.54,4.99,21.52,4.99c8,0,15.18-1.66,21.54-4.99c6.36-3.32,11.35-7.93,14.96-13.84
		c3.61-5.91,5.41-12.58,5.41-20C168.59,281.73,166.8,275.06,163.19,269.17z M141.11,298.97c-1.47,2.8-3.47,4.96-5.98,6.48
		c-2.52,1.52-5.34,2.28-8.45,2.28c-3.11,0-5.92-0.76-8.43-2.28c-2.5-1.52-4.51-3.68-5.99-6.48c-1.49-2.78-2.23-6.06-2.23-9.81
		c0-3.75,0.74-7.01,2.23-9.81c1.49-2.8,3.49-4.94,5.99-6.46c2.5-1.52,5.32-2.28,8.43-2.28c3.11,0,5.92,0.76,8.45,2.28
		c2.5,1.52,4.51,3.66,5.98,6.46c1.49,2.8,2.23,6.06,2.23,9.81C143.34,292.91,142.6,296.19,141.11,298.97z"/>
	<path class="st0" d="M207.84,137.9c-2.75-4.25-6.68-7.5-11.76-9.76c-5.1-2.26-11.07-3.4-17.93-3.4h-35.76v74.26h25.03v-18.24h10.73
		c6.86,0,12.83-1.14,17.93-3.4c5.08-2.26,9.02-5.51,11.76-9.76c2.76-4.23,4.15-9.19,4.15-14.86
		C211.98,147.09,210.6,142.13,207.84,137.9z M184.19,159.16c-1.69,1.52-4.25,2.28-7.63,2.28h-9.14v-17.39h9.14
		c3.39,0,5.94,0.76,7.63,2.28c1.69,1.52,2.54,3.66,2.54,6.41C186.73,155.5,185.88,157.64,184.19,159.16z"/>
	<polygon class="st0" points="199.94,379.34 224.33,379.34 224.33,453.6 203.76,453.6 175.54,419.87 175.54,453.6 151.15,453.6 
		151.15,379.34 171.72,379.34 199.94,413.08 	"/>
	<polygon class="st0" points="202.76,283.65 233.73,283.65 233.73,302.53 202.76,302.53 202.76,326.3 177.71,326.3 177.71,252.04 
		238.08,252.04 238.08,270.92 202.76,270.92 	"/>
	<path class="st0" d="M272.23,252.04h0.52c0.59,6.43,1.42,12.92,2.52,19.42h-3.04V252.04z"/>
	<path class="st0" d="M265.45,124.73h-24.61l-32.46,74.26h25.46l4.99-12.94h28.21l4.99,12.94h0.6c1.26-17.03,3.49-32.49,5.49-45.27
		L265.45,124.73z M245.72,168.02l7.2-18.67l7.22,18.67H245.72z"/>
	<polygon class="st0" points="261.04,434.71 298.18,434.71 298.18,453.6 236.43,453.6 236.43,379.34 296.8,379.34 296.8,398.22 
		261.04,398.22 261.04,406.91 292.44,406.91 292.44,424.95 261.04,424.95 	"/>
	<path class="st0" d="M363.42,430.68c4.53-2.33,7.98-5.48,10.4-9.45c1.99-3.26,3.14-6.98,3.47-11.16
		c-15.2-8.69-30.11-18.6-43.74-30.73h-25.72v74.26h25.03v-18.67h6.79l12.63,18.67h26.74L363.42,430.68z M349.62,413.75
		c-1.69,1.54-4.23,2.28-7.63,2.28h-9.12v-17.39h9.12c3.4,0,5.94,0.76,7.63,2.28c1.71,1.52,2.56,3.66,2.56,6.43
		C352.17,410.11,351.33,412.23,349.62,413.75z"/>
	<path class="st0" d="M452.57,448.92c-3.09,1.59-6.46,2.9-10.12,3.94c-5.8,1.62-11.49,2.44-17.08,2.44
		c-7.91,0-15.03-1.64-21.32-4.94c-6.3-3.28-11.23-7.88-14.8-13.78c-3.58-5.91-5.35-12.61-5.35-20.11c0-0.9,0.02-1.78,0.09-2.66
		c9.67,5.32,19.4,10.19,28.93,14.89c4.34,2.12,8.62,4.23,12.82,6.3C435.09,439.63,444.12,444.17,452.57,448.92z"/>
</g>
</svg>
